<svg width="305" height="48" viewBox="0 0 305 48" fill="none" xmlns="http://www.w3.org/2000/svg">
<path d="M69.258 15.848H60.522V38H54.282V15.848H45.585V10.7H69.258V15.848ZM91.0212 27.587C91.0212 27.665 90.9822 28.211 90.9042 29.225H75.0312C75.3172 30.525 75.9932 31.552 77.0592 32.306C78.1252 33.06 79.4512 33.437 81.0372 33.437C82.1292 33.437 83.0912 33.281 83.9232 32.969C84.7812 32.631 85.5742 32.111 86.3022 31.409L89.5392 34.919C87.5632 37.181 84.6772 38.312 80.8812 38.312C78.5152 38.312 76.4222 37.857 74.6022 36.947C72.7822 36.011 71.3782 34.724 70.3902 33.086C69.4022 31.448 68.9082 29.589 68.9082 27.509C68.9082 25.455 69.3892 23.609 70.3512 21.971C71.3392 20.307 72.6782 19.02 74.3682 18.11C76.0842 17.174 77.9952 16.706 80.1012 16.706C82.1552 16.706 84.0142 17.148 85.6782 18.032C87.3422 18.916 88.6422 20.19 89.5782 21.854C90.5402 23.492 91.0212 25.403 91.0212 27.587ZM80.1402 21.308C78.7622 21.308 77.6052 21.698 76.6692 22.478C75.7332 23.258 75.1612 24.324 74.9532 25.676H85.2882C85.0802 24.35 84.5082 23.297 83.5722 22.517C82.6362 21.711 81.4922 21.308 80.1402 21.308ZM105.669 38.312C103.433 38.312 101.418 37.857 99.6238 36.947C97.8558 36.011 96.4648 34.724 95.4508 33.086C94.4628 31.448 93.9688 29.589 93.9688 27.509C93.9688 25.429 94.4628 23.57 95.4508 21.932C96.4648 20.294 97.8558 19.02 99.6238 18.11C101.418 17.174 103.433 16.706 105.669 16.706C107.879 16.706 109.803 17.174 111.441 18.11C113.105 19.02 114.314 20.333 115.068 22.049L110.349 24.584C109.257 22.66 107.684 21.698 105.63 21.698C104.044 21.698 102.731 22.218 101.691 23.258C100.651 24.298 100.131 25.715 100.131 27.509C100.131 29.303 100.651 30.72 101.691 31.76C102.731 32.8 104.044 33.32 105.63 33.32C107.71 33.32 109.283 32.358 110.349 30.434L115.068 33.008C114.314 34.672 113.105 35.972 111.441 36.908C109.803 37.844 107.879 38.312 105.669 38.312ZM136.317 22.01H129.219V38H123.174V22.01H116.076V17.018H136.317V22.01ZM164.871 38L164.832 21.659L156.798 35.114H153.99L145.956 21.971V38H140.028V10.7H145.254L155.472 27.665L165.534 10.7H170.76L170.799 38H164.871ZM186.941 38.312C184.731 38.312 182.742 37.857 180.974 36.947C179.232 36.011 177.867 34.724 176.879 33.086C175.891 31.448 175.397 29.589 175.397 27.509C175.397 25.429 175.891 23.57 176.879 21.932C177.867 20.294 179.232 19.02 180.974 18.11C182.742 17.174 184.731 16.706 186.941 16.706C189.151 16.706 191.127 17.174 192.869 18.11C194.611 19.02 195.976 20.294 196.964 21.932C197.952 23.57 198.446 25.429 198.446 27.509C198.446 29.589 197.952 31.448 196.964 33.086C195.976 34.724 194.611 36.011 192.869 36.947C191.127 37.857 189.151 38.312 186.941 38.312ZM186.941 33.32C188.501 33.32 189.775 32.8 190.763 31.76C191.777 30.694 192.284 29.277 192.284 27.509C192.284 25.741 191.777 24.337 190.763 23.297C189.775 22.231 188.501 21.698 186.941 21.698C185.381 21.698 184.094 22.231 183.08 23.297C182.066 24.337 181.559 25.741 181.559 27.509C181.559 29.277 182.066 30.694 183.08 31.76C184.094 32.8 185.381 33.32 186.941 33.32ZM223.105 38V25.442L216.826 35.972H214.252L208.129 25.403V38H202.63V17.018H208.987L215.695 29.147L222.832 17.018H228.526L228.604 38H223.105ZM254.829 27.587C254.829 27.665 254.79 28.211 254.712 29.225H238.839C239.125 30.525 239.801 31.552 240.867 32.306C241.933 33.06 243.259 33.437 244.845 33.437C245.937 33.437 246.899 33.281 247.731 32.969C248.589 32.631 249.382 32.111 250.11 31.409L253.347 34.919C251.371 37.181 248.485 38.312 244.689 38.312C242.323 38.312 240.23 37.857 238.41 36.947C236.59 36.011 235.186 34.724 234.198 33.086C233.21 31.448 232.716 29.589 232.716 27.509C232.716 25.455 233.197 23.609 234.159 21.971C235.147 20.307 236.486 19.02 238.176 18.11C239.892 17.174 241.803 16.706 243.909 16.706C245.963 16.706 247.822 17.148 249.486 18.032C251.15 18.916 252.45 20.19 253.386 21.854C254.348 23.492 254.829 25.403 254.829 27.587ZM243.948 21.308C242.57 21.308 241.413 21.698 240.477 22.478C239.541 23.258 238.969 24.324 238.761 25.676H249.096C248.888 24.35 248.316 23.297 247.38 22.517C246.444 21.711 245.3 21.308 243.948 21.308ZM259.492 17.018H265.537V25.208H274.663V17.018H280.747V38H274.663V30.161H265.537V38H259.492V17.018ZM304.199 22.01H297.101V38H291.056V22.01H283.958V17.018H304.199V22.01Z" fill="#0F0F0F"/>
<path d="M30.4232 6L38.2343 13.7312L38.2302 13.7353L40 15.487L30.3887 25L26.9891 21.6352L31.11 17.5564H16V12.7979H30.4922L27.0236 9.36481L30.4232 6Z" fill="#0F0F0F"/>
<path d="M19.4232 22L27.2343 29.7312L27.2302 29.7353L29 31.487L19.3887 41L15.9891 37.6352L20.11 33.5564H5V28.7979H19.4922L16.0236 25.3648L19.4232 22Z" fill="#0F0F0F"/>
</svg>
